<svg width="20" height="20" viewBox="0 0 20 20" fill="none" xmlns="http://www.w3.org/2000/svg">
<g clip-path="url(#clip0_387_1173)">
<path fill-rule="evenodd" clip-rule="evenodd" d="M12 10.75C11.3096 10.75 10.75 11.3096 10.75 12C10.75 12.6904 11.3096 13.25 12 13.25C12.6904 13.25 13.25 12.6904 13.25 12C13.25 11.3096 12.6904 10.75 12 10.75ZM9.25 12C9.25 10.4812 10.4812 9.25 12 9.25C13.5188 9.25 14.75 10.4812 14.75 12C14.75 13.5188 13.5188 14.75 12 14.75C10.4812 14.75 9.25 13.5188 9.25 12Z" fill="#E6E8F0"/>
<path fill-rule="evenodd" clip-rule="evenodd" d="M18.0964 12C15.004 16.3333 8.99597 16.3333 5.90363 12C8.99597 7.66667 15.004 7.66667 18.0964 12ZM4.36658 11.5984C8.04251 5.80053 15.9575 5.80053 19.6334 11.5984C19.7889 11.8436 19.7889 12.1564 19.6334 12.4016C15.9575 18.1995 8.04251 18.1995 4.36658 12.4016C4.21114 12.1564 4.21114 11.8436 4.36658 11.5984Z" fill="#E6E8F0"/>
<path fill-rule="evenodd" clip-rule="evenodd" d="M2.25 4C2.25 3.0335 3.0335 2.25 4 2.25H20C20.9665 2.25 21.75 3.0335 21.75 4V20C21.75 20.9665 20.9665 21.75 20 21.75H4C3.0335 21.75 2.25 20.9665 2.25 20V4ZM4 3.75C3.86193 3.75 3.75 3.86193 3.75 4V20C3.75 20.1381 3.86193 20.25 4 20.25H20C20.1381 20.25 20.25 20.1381 20.25 20V4C20.25 3.86193 20.1381 3.75 20 3.75H4Z" fill="#E6E8F0"/>
</g>
<defs>
<clipPath id="clip0_387_1173">
<rect width="20" height="20" fill="white"/>
</clipPath>
</defs>
</svg>
