<svg width="36" height="36" viewBox="0 0 36 36" fill="none" xmlns="http://www.w3.org/2000/svg">
<path fill-rule="evenodd" clip-rule="evenodd" d="M18 16.9583C17.4247 16.9583 16.9583 17.4247 16.9583 18C16.9583 18.5753 17.4247 19.0417 18 19.0417C18.5753 19.0417 19.0417 18.5753 19.0417 18C19.0417 17.4247 18.5753 16.9583 18 16.9583ZM15.7083 18C15.7083 16.7343 16.7343 15.7083 18 15.7083C19.2657 15.7083 20.2917 16.7343 20.2917 18C20.2917 19.2657 19.2657 20.2917 18 20.2917C16.7343 20.2917 15.7083 19.2657 15.7083 18Z" fill="#E6E8F0"/>
<path fill-rule="evenodd" clip-rule="evenodd" d="M23.0803 18C20.5034 21.6111 15.4966 21.6111 12.9197 18C15.4966 14.3889 20.5034 14.3889 23.0803 18ZM11.6388 17.6653C14.7021 12.8338 21.2979 12.8338 24.3612 17.6653C24.4907 17.8696 24.4907 18.1304 24.3612 18.3347C21.2979 23.1662 14.7021 23.1662 11.6388 18.3347C11.5093 18.1304 11.5093 17.8696 11.6388 17.6653Z" fill="#E6E8F0"/>
<path fill-rule="evenodd" clip-rule="evenodd" d="M9.875 11.3333C9.875 10.5279 10.5279 9.875 11.3333 9.875H24.6667C25.4721 9.875 26.125 10.5279 26.125 11.3333V24.6667C26.125 25.4721 25.4721 26.125 24.6667 26.125H11.3333C10.5279 26.125 9.875 25.4721 9.875 24.6667V11.3333ZM11.3333 11.125C11.2183 11.125 11.125 11.2183 11.125 11.3333V24.6667C11.125 24.7817 11.2183 24.875 11.3333 24.875H24.6667C24.7817 24.875 24.875 24.7817 24.875 24.6667V11.3333C24.875 11.2183 24.7817 11.125 24.6667 11.125H11.3333Z" fill="#E6E8F0"/>
</svg>
