<svg width="20" height="20" viewBox="0 0 20 20" fill="none" xmlns="http://www.w3.org/2000/svg">
<g clip-path="url(#clip0_387_1180)">
<path fill-rule="evenodd" clip-rule="evenodd" d="M3.25 4C3.25 3.58579 3.58579 3.25 4 3.25H20C20.2766 3.25 20.5307 3.40224 20.6613 3.64611C20.7918 3.88997 20.7775 4.18588 20.624 4.41603L16.9014 10L20.624 15.584C20.7775 15.8141 20.7918 16.11 20.6613 16.3539C20.5307 16.5978 20.2766 16.75 20 16.75H4C3.58579 16.75 3.25 16.4142 3.25 16V4ZM4.75 4.75V15.25H18.5986L15.376 10.416C15.208 10.1641 15.208 9.8359 15.376 9.58397L18.5986 4.75H4.75Z" fill="#E6E8F0"/>
<path fill-rule="evenodd" clip-rule="evenodd" d="M4 1.25C4.41421 1.25 4.75 1.58579 4.75 2V23C4.75 23.4142 4.41421 23.75 4 23.75C3.58579 23.75 3.25 23.4142 3.25 23V2C3.25 1.58579 3.58579 1.25 4 1.25Z" fill="#E6E8F0"/>
</g>
<defs>
<clipPath id="clip0_387_1180">
<rect width="20" height="20" fill="white"/>
</clipPath>
</defs>
</svg>
