<svg width="20" height="20" viewBox="0 0 20 20" fill="none" xmlns="http://www.w3.org/2000/svg">
<path d="M15.8378 18.7875H12.5045C12.1628 18.7875 11.8795 18.5042 11.8795 18.1625V15.5125C11.8795 14.5042 11.0378 13.6875 10.0045 13.6875C8.97113 13.6875 8.12947 14.5042 8.12947 15.5125V18.1625C8.12947 18.5042 7.84613 18.7875 7.50447 18.7875H4.17113C3.37113 18.7875 2.7128 18.1292 2.7128 17.3292V10.4375H1.67113C1.42113 10.4375 1.1878 10.2875 1.09613 10.0542C0.996133 9.82086 1.05447 9.55419 1.22947 9.37086L8.97113 1.63752C9.5378 1.07086 10.4628 1.07086 11.0295 1.63752L18.7711 9.37086C18.9461 9.54586 19.0045 9.82086 18.9045 10.0542C18.8045 10.2875 18.5795 10.4375 18.3295 10.4375H17.2878V17.3209C17.2878 18.1209 16.6295 18.7792 15.8295 18.7792L15.8378 18.7875ZM13.1295 17.5375H15.8378C15.9545 17.5375 16.0461 17.4459 16.0461 17.3292V9.81252C16.0461 9.47086 16.3295 9.18752 16.6711 9.18752H16.8295L10.1545 2.52086C10.0711 2.43752 9.9378 2.43752 9.8628 2.52086L3.17947 9.18752H3.3378C3.67947 9.18752 3.9628 9.47086 3.9628 9.81252V17.3209C3.9628 17.4375 4.05447 17.5292 4.17113 17.5292H6.87947V15.5042C6.87947 13.8125 8.27947 12.4292 10.0045 12.4292C11.7295 12.4292 13.1295 13.8042 13.1295 15.5042V17.5375Z" fill="#E6E8F0"/>
</svg>
