<svg width="36" height="36" viewBox="0 0 36 36" fill="none" xmlns="http://www.w3.org/2000/svg">
<path d="M23.8378 26.7875H20.5045C20.1628 26.7875 19.8795 26.5042 19.8795 26.1625V23.5125C19.8795 22.5042 19.0378 21.6875 18.0045 21.6875C16.9711 21.6875 16.1295 22.5042 16.1295 23.5125V26.1625C16.1295 26.5042 15.8461 26.7875 15.5045 26.7875H12.1711C11.3711 26.7875 10.7128 26.1292 10.7128 25.3292V18.4375H9.67113C9.42113 18.4375 9.1878 18.2875 9.09613 18.0542C8.99613 17.8209 9.05447 17.5542 9.22947 17.3709L16.9711 9.63752C17.5378 9.07086 18.4628 9.07086 19.0295 9.63752L26.7711 17.3709C26.9461 17.5459 27.0045 17.8209 26.9045 18.0542C26.8045 18.2875 26.5795 18.4375 26.3295 18.4375H25.2878V25.3209C25.2878 26.1209 24.6295 26.7792 23.8295 26.7792L23.8378 26.7875ZM21.1295 25.5375H23.8378C23.9545 25.5375 24.0461 25.4459 24.0461 25.3292V17.8125C24.0461 17.4709 24.3295 17.1875 24.6711 17.1875H24.8295L18.1545 10.5209C18.0711 10.4375 17.9378 10.4375 17.8628 10.5209L11.1795 17.1875H11.3378C11.6795 17.1875 11.9628 17.4709 11.9628 17.8125V25.3209C11.9628 25.4375 12.0545 25.5292 12.1711 25.5292H14.8795V23.5042C14.8795 21.8125 16.2795 20.4292 18.0045 20.4292C19.7295 20.4292 21.1295 21.8042 21.1295 23.5042V25.5375Z" fill="#E6E8F0"/>
</svg>
