<svg width="20" height="20" viewBox="0 0 20 20" fill="none" xmlns="http://www.w3.org/2000/svg">
<path fill-rule="evenodd" clip-rule="evenodd" d="M3.28288 2.37156C3.28288 1.46644 4.04533 0.774353 4.9231 0.774353H15.0753C15.953 0.774353 16.7155 1.46644 16.7155 2.37156V12.0936C16.7155 12.9987 15.953 13.6908 15.0753 13.6908H4.9231C4.04533 13.6908 3.28288 12.9987 3.28288 12.0936V2.37156ZM4.9231 2.02435C4.68413 2.02435 4.53288 2.20725 4.53288 2.37156V12.0936C4.53288 12.2579 4.68413 12.4408 4.9231 12.4408H15.0753C15.3142 12.4408 15.4655 12.2579 15.4655 12.0936V2.37156C15.4655 2.20725 15.3142 2.02435 15.0753 2.02435H10.5501V6.06203C10.5501 6.40721 10.2703 6.68703 9.92513 6.68703C9.57995 6.68703 9.30013 6.40721 9.30013 6.06203V2.02435H4.9231Z" fill="white"/>
<path fill-rule="evenodd" clip-rule="evenodd" d="M4.16667 15.059C5.3125 15.059 6.25 15.9965 6.25 17.1424C6.25 18.2882 5.3125 19.2257 4.16667 19.2257C3.02083 19.2257 2.08333 18.2882 2.08333 17.1424C2.08333 15.9965 3.02083 15.059 4.16667 15.059ZM5 17.1424C5 16.6869 4.62214 16.309 4.16667 16.309C3.71119 16.309 3.33333 16.6869 3.33333 17.1424C3.33333 17.5978 3.71119 17.9757 4.16667 17.9757C4.62215 17.9757 5 17.5978 5 17.1424Z" fill="white"/>
<path fill-rule="evenodd" clip-rule="evenodd" d="M12.0833 17.1424C12.0833 15.9965 11.1458 15.059 10 15.059C8.85417 15.059 7.91667 15.9965 7.91667 17.1424C7.91667 18.2882 8.85417 19.2257 10 19.2257C11.1458 19.2257 12.0833 18.2882 12.0833 17.1424ZM10 16.309C10.4555 16.309 10.8333 16.6869 10.8333 17.1424C10.8333 17.5978 10.4555 17.9757 10 17.9757C9.54452 17.9757 9.16667 17.5978 9.16667 17.1424C9.16667 16.6869 9.54452 16.309 10 16.309Z" fill="white"/>
<path fill-rule="evenodd" clip-rule="evenodd" d="M15.8333 15.059C16.9792 15.059 17.9167 15.9965 17.9167 17.1424C17.9167 18.2882 16.9792 19.2257 15.8333 19.2257C14.6875 19.2257 13.75 18.2882 13.75 17.1424C13.75 15.9965 14.6875 15.059 15.8333 15.059ZM16.6667 17.1424C16.6667 16.6869 16.2888 16.309 15.8333 16.309C15.3779 16.309 15 16.6869 15 17.1424C15 17.5978 15.3779 17.9757 15.8333 17.9757C16.2888 17.9757 16.6667 17.5978 16.6667 17.1424Z" fill="white"/>
</svg>
