<svg width="40" height="40" viewBox="0 0 40 40" fill="none" xmlns="http://www.w3.org/2000/svg">
<rect width="40" height="40" rx="8" fill="#005BD2"/>
<path d="M9.59253 16.575C10.0063 17.1655 10.8322 16.1834 10.7595 16.0011C10.6871 15.8194 9.18251 15.9857 9.59253 16.575Z" fill="white"/>
<path d="M12.8577 12.7801C15.0348 12.7801 16.7995 11.0068 16.7995 8.82454C16.7995 6.64092 15.0348 4.87036 12.8577 4.87036C10.6805 4.87036 8.91525 6.64092 8.91525 8.82454C8.91525 11.0068 10.6805 12.7801 12.8577 12.7801ZM12.9652 5.79351C14.4085 5.79351 15.5779 6.9678 15.5779 8.41529C15.5779 9.86341 14.4085 11.0364 12.9652 11.0364C11.5214 11.0364 10.3485 9.86341 10.3485 8.41529C10.3485 6.9678 11.5214 5.79351 12.9652 5.79351Z" fill="white"/>
<path d="M32.6546 19.7645C32.1239 17.2621 29.9668 17.1846 28.8154 17.2731C27.6306 17.364 25.3812 17.7188 23.0775 17.7188C19.952 17.7188 16.4564 16.8375 13.7678 15.585C13.3024 15.3683 13.5339 15.2778 13.7456 15.1625C14.7534 14.6137 15.6309 14.104 16.1639 13.2342C16.5719 12.5681 16.4161 12.3539 15.9653 12.7277C14.746 13.7388 13.0131 14.3044 11.0729 13.612C9.13271 12.9197 8.38148 11.0447 8.20902 10.5719C8.03861 10.0997 7.79582 10.0649 7.79582 10.7571C7.79582 12.503 8.56686 13.5608 8.82381 13.8627C9.08177 14.163 9.20104 14.4603 9.05839 14.6339C8.67968 15.0948 8.26268 15.5873 8.24693 15.7852C8.23042 15.9925 8.24992 16.1067 8.16585 16.3517C8.08178 16.5967 7.76773 16.9447 7.29147 17.5471C7.01995 17.8924 7.18585 18.256 7.41471 18.5108C7.69083 18.8153 7.86666 19.1665 8.20329 19.3246C8.53991 19.4826 8.8548 19.3658 9.24709 19.4384C9.63311 19.5099 10.1185 19.7369 10.4996 20.4212C11.0506 21.4139 11.6533 22.9611 12.7266 24.2491C13.206 24.8213 13.2039 25.8543 13.206 26.2028C13.2368 29.2078 11.6613 32.0511 10.66 33.8533C10.4227 34.2814 10.4709 34.6341 10.7906 34.6369C11.1549 34.6408 12.5208 34.6369 12.7401 34.6369C13.0024 34.6369 13.1463 34.3609 13.1654 34.0789C13.3312 31.6237 14.7194 27.1077 15.7694 26.3362C17.5291 27.4343 19.2754 29.7972 18.4205 33.9177C18.3744 34.1399 18.1683 34.6381 18.6927 34.6381C18.6927 34.6381 20.1763 34.6381 20.3837 34.6381C20.5982 34.6381 20.9491 34.5535 20.9275 34.1583C20.8393 32.5455 19.4978 29.148 19.1428 27.1431C18.9185 25.876 19.926 23.6213 23.7174 25.3524C25.1836 24.0454 27.0892 24.8407 26.2751 27.3631C25.4693 29.8601 24.7698 30.9769 22.0066 33.9225C21.6899 34.2601 21.6734 34.6402 22.1713 34.6402C22.4195 34.6402 23.6904 34.6381 23.9461 34.6381C24.3268 34.6381 24.4797 34.5313 24.5973 34.2229C24.715 33.9144 25.9715 29.9027 28.4556 28.0287C28.6476 27.8839 28.8129 27.2403 29.1979 25.787C30.4063 27.3613 30.5536 30.2435 28.5058 33.9494C28.2918 34.335 28.4255 34.6369 28.6697 34.6369C28.8134 34.6369 29.9315 34.6369 30.2781 34.6369C30.5778 34.6369 30.6642 34.4738 30.7811 34.0242C30.9241 33.4738 30.9771 33.204 31.1671 32.6672C31.2849 32.3343 31.3394 32.2808 32.6117 32.2943C33.0184 32.2986 32.9994 32.0803 32.9994 31.7383C32.9994 26.7217 33.0307 21.5377 32.6546 19.7645ZM28.1294 18.106C28.546 18.8709 28.5686 19.3188 28.4493 19.7019C28.3299 20.085 27.7989 20.3006 27.6826 20.2599C27.6685 19.439 27.4479 18.8161 27.063 18.2531C27.418 18.1993 27.7733 18.146 28.1294 18.106ZM24.8327 18.5033C25.0734 19.4074 25.0434 20.5957 24.7039 20.9416C24.1681 21.4876 21.7414 21.3773 21.0428 21.2714C20.8628 21.2442 20.6556 21.2095 20.5655 20.7177C20.458 20.1325 20.433 19.0658 20.3996 18.3557C21.868 18.5487 23.3549 18.5981 24.8327 18.5033ZM16.1999 20.2224C16.398 19.5626 16.6016 18.4564 16.7073 17.5541C17.1775 17.6979 17.6522 17.827 18.1306 17.9399C17.8086 20.0005 17.1654 20.5803 16.8258 20.717C16.5644 20.8222 16.0017 20.8822 16.1999 20.2224ZM11.8591 21.3069C11.445 20.7606 10.9072 19.4412 10.4411 19.0722C9.54614 18.3629 8.77285 18.9185 8.42146 18.497C8.04744 18.0455 7.89446 18.0118 8.24398 17.5817C8.24398 17.5817 8.63754 17.0544 8.80217 16.8316C8.9668 16.6088 8.93586 16.1785 9.00199 15.9928C9.06742 15.8079 9.47698 15.2653 9.87798 14.9148C10.3211 14.5275 10.6855 14.6978 12.0798 15.5424C13.7735 16.5684 14.2912 16.3463 13.711 17.2671C13.3444 17.8489 12.1506 19.4017 11.8591 21.3069ZM30.496 20.679C30.4021 22.2197 30.0616 24.3972 29.5332 24.6317C29.0047 24.8662 28.1828 23.4513 23.8888 23.374C20.8393 23.3191 18.4964 23.7229 18.066 26.5133C18.0346 26.7165 17.9175 26.6779 17.8312 26.584C16.994 25.6735 16.2319 25.268 14.9976 24.5471C13.7634 23.8263 12.9385 22.8398 12.7851 21.8753C12.6317 20.9107 12.978 19.6132 14.7231 17.2458C14.9654 16.9172 15.0091 16.9473 15.9829 17.3176C15.9083 18.8992 15.5204 19.7887 15.3573 20.6057C15.1919 21.4346 16.1115 21.6138 16.9192 21.4228C17.7269 21.2318 18.4952 20.3787 18.8338 18.0941C19.1507 18.1589 19.4023 18.2047 19.7217 18.256C19.7679 20.6251 19.9061 21.1664 20.0024 21.3881C20.192 21.8243 20.6302 21.9683 20.9861 21.9966C22.8454 22.1441 24.643 22.0829 25.2866 21.453C25.9302 20.8231 25.7081 19.2841 25.5314 18.4475C25.8222 18.4201 26.0707 18.393 26.3602 18.3542C26.9646 19.0682 27.0486 19.8346 27.0486 20.3355C27.0486 20.8792 27.6475 21.1606 28.4892 20.5803C29.3309 19.9999 29.2367 18.979 28.7865 18.0517C30.6925 17.8786 30.5899 19.1383 30.496 20.679ZM31.9106 28.2386C31.8814 28.4635 31.6641 28.6469 31.6118 28.1809C31.5445 27.5819 31.2354 26.2173 31.1355 25.6438C31.0418 25.1065 31.3286 23.4666 31.4331 22.1053C31.4421 21.988 31.575 21.9918 31.6557 22.0771C32.234 22.6881 32.0309 27.3112 31.9106 28.2386Z" fill="white"/>
</svg>
