<svg width="20" height="20" viewBox="0 0 20 20" fill="none" xmlns="http://www.w3.org/2000/svg">
<g clip-path="url(#clip0_385_2566)">
<path fill-rule="evenodd" clip-rule="evenodd" d="M3.93945 2.84584C3.93945 1.7597 4.85439 0.929199 5.90771 0.929199H18.0903C19.1437 0.929199 20.0586 1.7597 20.0586 2.84584V14.5123C20.0586 15.5984 19.1437 16.4289 18.0903 16.4289H5.90771C4.85439 16.4289 3.93945 15.5984 3.93945 14.5123V2.84584ZM5.90771 2.4292C5.62095 2.4292 5.43945 2.64867 5.43945 2.84584V14.5123C5.43945 14.7094 5.62095 14.9289 5.90771 14.9289H18.0903C18.3771 14.9289 18.5586 14.7094 18.5586 14.5123V2.84584C18.5586 2.64867 18.3771 2.4292 18.0903 2.4292H12.6602V7.27441C12.6602 7.68863 12.3244 8.02441 11.9102 8.02441C11.4959 8.02441 11.1602 7.68863 11.1602 7.27441V2.4292H5.90771Z" fill="white"/>
<path fill-rule="evenodd" clip-rule="evenodd" d="M5 18.0708C6.375 18.0708 7.5 19.1958 7.5 20.5708C7.5 21.9458 6.375 23.0708 5 23.0708C3.625 23.0708 2.5 21.9458 2.5 20.5708C2.5 19.1958 3.625 18.0708 5 18.0708ZM6 20.5708C6 20.0242 5.54657 19.5708 5 19.5708C4.45343 19.5708 4 20.0242 4 20.5708C4 21.1174 4.45343 21.5708 5 21.5708C5.54657 21.5708 6 21.1174 6 20.5708Z" fill="white"/>
<path fill-rule="evenodd" clip-rule="evenodd" d="M14.5 20.5708C14.5 19.1958 13.375 18.0708 12 18.0708C10.625 18.0708 9.5 19.1958 9.5 20.5708C9.5 21.9458 10.625 23.0708 12 23.0708C13.375 23.0708 14.5 21.9458 14.5 20.5708ZM12 19.5708C12.5466 19.5708 13 20.0242 13 20.5708C13 21.1174 12.5466 21.5708 12 21.5708C11.4534 21.5708 11 21.1174 11 20.5708C11 20.0242 11.4534 19.5708 12 19.5708Z" fill="white"/>
<path fill-rule="evenodd" clip-rule="evenodd" d="M19 18.0708C20.375 18.0708 21.5 19.1958 21.5 20.5708C21.5 21.9458 20.375 23.0708 19 23.0708C17.625 23.0708 16.5 21.9458 16.5 20.5708C16.5 19.1958 17.625 18.0708 19 18.0708ZM20 20.5708C20 20.0242 19.5466 19.5708 19 19.5708C18.4534 19.5708 18 20.0242 18 20.5708C18 21.1174 18.4534 21.5708 19 21.5708C19.5466 21.5708 20 21.1174 20 20.5708Z" fill="white"/>
</g>
<defs>
<clipPath id="clip0_385_2566">
<rect width="20" height="20" fill="white"/>
</clipPath>
</defs>
</svg>
