<svg width="60" height="56" viewBox="0 0 60 56" fill="none" xmlns="http://www.w3.org/2000/svg">
<path d="M10 4C10 1.79086 11.7909 0 14 0H46C48.2091 0 50 1.79086 50 4V36C50 38.2091 48.2091 40 46 40H14C11.7909 40 10 38.2091 10 36V4Z" fill="#2E4281"/>
<path fill-rule="evenodd" clip-rule="evenodd" d="M23.2829 12.3716C23.2829 11.4664 24.0453 10.7744 24.9231 10.7744H35.0753C35.953 10.7744 36.7155 11.4664 36.7155 12.3716V22.0936C36.7155 22.9987 35.953 23.6908 35.0753 23.6908H24.9231C24.0453 23.6908 23.2829 22.9987 23.2829 22.0936V12.3716ZM24.9231 12.0244C24.6841 12.0244 24.5329 12.2072 24.5329 12.3716V22.0936C24.5329 22.2579 24.6841 22.4408 24.9231 22.4408H35.0753C35.3142 22.4408 35.4655 22.2579 35.4655 22.0936V12.3716C35.4655 12.2072 35.3142 12.0244 35.0753 12.0244H30.5501V16.062C30.5501 16.4072 30.2703 16.687 29.9251 16.687C29.58 16.687 29.3001 16.4072 29.3001 16.062V12.0244H24.9231Z" fill="white"/>
<path fill-rule="evenodd" clip-rule="evenodd" d="M24.1667 25.059C25.3125 25.059 26.25 25.9965 26.25 27.1424C26.25 28.2882 25.3125 29.2257 24.1667 29.2257C23.0208 29.2257 22.0833 28.2882 22.0833 27.1424C22.0833 25.9965 23.0208 25.059 24.1667 25.059ZM25 27.1424C25 26.6869 24.6221 26.309 24.1667 26.309C23.7112 26.309 23.3333 26.6869 23.3333 27.1424C23.3333 27.5978 23.7112 27.9757 24.1667 27.9757C24.6221 27.9757 25 27.5978 25 27.1424Z" fill="white"/>
<path fill-rule="evenodd" clip-rule="evenodd" d="M32.0833 27.1424C32.0833 25.9965 31.1458 25.059 30 25.059C28.8542 25.059 27.9167 25.9965 27.9167 27.1424C27.9167 28.2882 28.8542 29.2257 30 29.2257C31.1458 29.2257 32.0833 28.2882 32.0833 27.1424ZM30 26.309C30.4555 26.309 30.8333 26.6869 30.8333 27.1424C30.8333 27.5978 30.4555 27.9757 30 27.9757C29.5445 27.9757 29.1667 27.5978 29.1667 27.1424C29.1667 26.6869 29.5445 26.309 30 26.309Z" fill="white"/>
<path fill-rule="evenodd" clip-rule="evenodd" d="M35.8333 25.059C36.9792 25.059 37.9167 25.9965 37.9167 27.1424C37.9167 28.2882 36.9792 29.2257 35.8333 29.2257C34.6875 29.2257 33.75 28.2882 33.75 27.1424C33.75 25.9965 34.6875 25.059 35.8333 25.059ZM36.6667 27.1424C36.6667 26.6869 36.2888 26.309 35.8333 26.309C35.3779 26.309 35 26.6869 35 27.1424C35 27.5978 35.3779 27.9757 35.8333 27.9757C36.2888 27.9757 36.6667 27.5978 36.6667 27.1424Z" fill="white"/>
<path d="M16.14 53V44.432H17.436V51.884H21.096V53H16.14ZM23.0776 44.072C23.2696 44.072 23.4376 44.128 23.5816 44.24C23.7256 44.352 23.7976 44.54 23.7976 44.804C23.7976 45.06 23.7256 45.248 23.5816 45.368C23.4376 45.48 23.2696 45.536 23.0776 45.536C22.8776 45.536 22.7056 45.48 22.5616 45.368C22.4176 45.248 22.3456 45.06 22.3456 44.804C22.3456 44.54 22.4176 44.352 22.5616 44.24C22.7056 44.128 22.8776 44.072 23.0776 44.072ZM23.7016 46.532V53H22.4296V46.532H23.7016ZM28.9751 46.412C29.7271 46.412 30.3031 46.6 30.7031 46.976C31.1031 47.352 31.3031 47.956 31.3031 48.788V53H30.0431V48.968C30.0431 47.96 29.5991 47.456 28.7111 47.456C28.0551 47.456 27.5991 47.652 27.3431 48.044C27.0951 48.436 26.9711 49 26.9711 49.736V53H25.6991V46.532H26.7071L26.8871 47.396H26.9591C27.1671 47.06 27.4511 46.812 27.8111 46.652C28.1791 46.492 28.5671 46.412 28.9751 46.412ZM35.8017 46.412C36.6497 46.412 37.3177 46.676 37.8057 47.204C38.2937 47.724 38.5377 48.436 38.5377 49.34V50.036H34.1937C34.2097 50.7 34.3817 51.208 34.7097 51.56C35.0457 51.912 35.5137 52.088 36.1137 52.088C36.5297 52.088 36.8977 52.052 37.2177 51.98C37.5457 51.9 37.8817 51.784 38.2257 51.632V52.688C37.8977 52.84 37.5697 52.948 37.2417 53.012C36.9137 53.084 36.5217 53.12 36.0657 53.12C35.4417 53.12 34.8897 52.996 34.4097 52.748C33.9297 52.5 33.5537 52.132 33.2817 51.644C33.0177 51.156 32.8857 50.548 32.8857 49.82C32.8857 49.092 33.0057 48.476 33.2457 47.972C33.4937 47.468 33.8337 47.084 34.2657 46.82C34.7057 46.548 35.2177 46.412 35.8017 46.412ZM35.8017 47.396C35.3457 47.396 34.9777 47.544 34.6977 47.84C34.4257 48.136 34.2657 48.556 34.2177 49.1H37.2657C37.2577 48.596 37.1337 48.188 36.8937 47.876C36.6617 47.556 36.2977 47.396 35.8017 47.396ZM44.4209 51.176C44.4209 51.816 44.1889 52.3 43.7249 52.628C43.2689 52.956 42.6249 53.12 41.7929 53.12C41.3369 53.12 40.9449 53.088 40.6169 53.024C40.2969 52.96 40.0009 52.86 39.7289 52.724V51.608C40.0089 51.744 40.3369 51.868 40.7129 51.98C41.0969 52.084 41.4689 52.136 41.8289 52.136C42.3089 52.136 42.6529 52.06 42.8609 51.908C43.0769 51.756 43.1849 51.552 43.1849 51.296C43.1849 51.152 43.1449 51.024 43.0649 50.912C42.9849 50.792 42.8329 50.672 42.6089 50.552C42.3929 50.424 42.0729 50.28 41.6489 50.12C41.2329 49.96 40.8809 49.796 40.5929 49.628C40.3129 49.46 40.0969 49.26 39.9449 49.028C39.7929 48.796 39.7169 48.504 39.7169 48.152C39.7169 47.592 39.9409 47.164 40.3889 46.868C40.8449 46.564 41.4449 46.412 42.1889 46.412C42.5809 46.412 42.9489 46.452 43.2929 46.532C43.6449 46.612 43.9849 46.724 44.3129 46.868L43.8929 47.84C43.6129 47.72 43.3249 47.62 43.0289 47.54C42.7329 47.452 42.4329 47.408 42.1289 47.408C41.3449 47.408 40.9529 47.636 40.9529 48.092C40.9529 48.244 40.9969 48.376 41.0849 48.488C41.1809 48.6 41.3409 48.712 41.5649 48.824C41.7969 48.936 42.1169 49.072 42.5249 49.232C42.9169 49.384 43.2529 49.544 43.5329 49.712C43.8209 49.872 44.0409 50.068 44.1929 50.3C44.3449 50.532 44.4209 50.824 44.4209 51.176Z" fill="white"/>
</svg>
