<svg width="20" height="18" viewBox="0 0 20 18" fill="none" xmlns="http://www.w3.org/2000/svg">
<path d="M7.58349 17.7062C7.52515 17.7062 7.46682 17.7062 7.40849 17.6812C6.54182 17.4312 5.55849 17.0895 4.75849 16.4229C4.62515 16.3145 4.54182 16.1562 4.53349 15.9812L4.38349 13.5479L1.96682 12.8645C1.78349 12.8145 1.63349 12.6812 1.55849 12.5062C1.20015 11.6229 0.983488 10.6979 0.916821 9.74787C0.900154 9.5562 0.983488 9.36454 1.12515 9.23954L2.98349 7.61454L2.03349 5.36454C1.95015 5.17287 1.97515 4.9562 2.08349 4.7812C2.82515 3.62287 2.85849 3.5812 3.85849 2.62287C4.00015 2.48953 4.20015 2.42287 4.39182 2.4562L6.88349 2.8562L8.10849 0.714535C8.20015 0.547868 8.36682 0.439535 8.55849 0.406201C9.50016 0.256201 10.5002 0.256201 11.4418 0.406201C11.6335 0.439535 11.7918 0.547868 11.8918 0.714535L13.1168 2.8562L15.6085 2.4562C15.7918 2.42287 15.9835 2.4812 16.1252 2.6062C16.8418 3.23953 17.4502 3.9812 17.9335 4.8062C18.0335 4.97287 18.0418 5.1812 17.9668 5.36454L17.0168 7.61454L18.8752 9.23954C19.0252 9.36454 19.1002 9.5562 19.0835 9.74787C19.0252 10.6979 18.8085 11.6229 18.4418 12.4979C18.3668 12.6729 18.2168 12.8062 18.0335 12.8562L15.6168 13.5395L15.4668 15.9729C15.4585 16.1645 15.3502 16.3395 15.1918 16.4479C14.3918 16.9895 13.5168 17.3979 12.5918 17.6729C12.4168 17.7229 12.2168 17.6979 12.0668 17.5895L10.0002 16.1729L7.93349 17.5895C7.82515 17.6645 7.70849 17.6979 7.58349 17.6979V17.7062ZM5.76682 15.6229C6.27515 15.9812 6.90015 16.2145 7.48349 16.3979L9.65849 14.9062C9.86682 14.7562 10.1502 14.7562 10.3668 14.9062L12.5335 16.3979C13.1418 16.1979 13.7168 15.9312 14.2502 15.5979L14.4085 13.0395C14.4252 12.7729 14.6085 12.5479 14.8585 12.4729L17.4002 11.7479C17.6085 11.1729 17.7502 10.5812 17.8168 9.97287L15.8585 8.2562C15.6585 8.0812 15.5918 7.78954 15.6918 7.53954L16.6918 5.17287C16.3585 4.64787 15.9668 4.17287 15.5085 3.73953L12.8918 4.16454C12.6335 4.2062 12.3752 4.0812 12.2502 3.8562L10.9668 1.6062C10.3335 1.5312 9.68349 1.5312 9.05016 1.6062L7.76682 3.8562C7.63349 4.0812 7.37515 4.2062 7.12515 4.16454L4.51682 3.73953C3.90015 4.33953 3.79182 4.47287 3.33349 5.1812L4.33349 7.53954C4.43349 7.78954 4.37515 8.07287 4.16682 8.2562L2.20849 9.97287C2.27515 10.5812 2.41682 11.1729 2.62515 11.7479L5.16682 12.4729C5.42515 12.5479 5.60015 12.7729 5.61682 13.0395L5.77515 15.6312L5.76682 15.6229ZM10.0085 12.7229C8.05849 12.7229 6.46682 11.1312 6.46682 9.1812C6.46682 7.2312 8.05849 5.63953 10.0085 5.63953C11.9585 5.63953 13.5502 7.2312 13.5502 9.1812C13.5502 11.1312 11.9585 12.7229 10.0085 12.7229ZM10.0085 6.88954C8.74182 6.88954 7.71682 7.91454 7.71682 9.1812C7.71682 10.4479 8.74182 11.4729 10.0085 11.4729C11.2752 11.4729 12.3002 10.4479 12.3002 9.1812C12.3002 7.91454 11.2752 6.88954 10.0085 6.88954Z" fill="#E6E8F0"/>
</svg>
