<svg width="40" height="40" viewBox="0 0 40 40" fill="none" xmlns="http://www.w3.org/2000/svg">
<path d="M17.5835 28.7063C17.5252 28.7063 17.4668 28.7063 17.4085 28.6813C16.5418 28.4313 15.5585 28.0896 14.7585 27.4229C14.6252 27.3146 14.5418 27.1563 14.5335 26.9813L14.3835 24.5479L11.9668 23.8646C11.7835 23.8146 11.6335 23.6813 11.5585 23.5063C11.2002 22.6229 10.9835 21.6979 10.9168 20.7479C10.9002 20.5563 10.9835 20.3646 11.1252 20.2396L12.9835 18.6146L12.0335 16.3646C11.9502 16.1729 11.9752 15.9563 12.0835 15.7813C12.8252 14.6229 12.8585 14.5813 13.8585 13.6229C14.0002 13.4896 14.2002 13.4229 14.3918 13.4563L16.8835 13.8563L18.1085 11.7146C18.2002 11.5479 18.3668 11.4396 18.5585 11.4063C19.5002 11.2563 20.5002 11.2563 21.4418 11.4063C21.6335 11.4396 21.7918 11.5479 21.8918 11.7146L23.1168 13.8563L25.6085 13.4563C25.7918 13.4229 25.9835 13.4813 26.1252 13.6063C26.8418 14.2396 27.4502 14.9813 27.9335 15.8063C28.0335 15.9729 28.0418 16.1813 27.9668 16.3646L27.0168 18.6146L28.8752 20.2396C29.0252 20.3646 29.1002 20.5563 29.0835 20.7479C29.0252 21.6979 28.8085 22.6229 28.4418 23.4979C28.3668 23.6729 28.2168 23.8063 28.0335 23.8563L25.6168 24.5396L25.4668 26.9729C25.4585 27.1646 25.3502 27.3396 25.1918 27.4479C24.3918 27.9896 23.5168 28.3979 22.5918 28.6729C22.4168 28.7229 22.2168 28.6979 22.0668 28.5896L20.0002 27.1729L17.9335 28.5896C17.8252 28.6646 17.7085 28.6979 17.5835 28.6979V28.7063ZM15.7668 26.6229C16.2752 26.9813 16.9002 27.2146 17.4835 27.3979L19.6585 25.9063C19.8668 25.7563 20.1502 25.7563 20.3668 25.9063L22.5335 27.3979C23.1418 27.1979 23.7168 26.9313 24.2502 26.5979L24.4085 24.0396C24.4252 23.7729 24.6085 23.5479 24.8585 23.4729L27.4002 22.7479C27.6085 22.1729 27.7502 21.5813 27.8168 20.9729L25.8585 19.2563C25.6585 19.0813 25.5918 18.7896 25.6918 18.5396L26.6918 16.1729C26.3585 15.6479 25.9668 15.1729 25.5085 14.7396L22.8918 15.1646C22.6335 15.2063 22.3752 15.0813 22.2502 14.8563L20.9668 12.6063C20.3335 12.5313 19.6835 12.5313 19.0502 12.6063L17.7668 14.8563C17.6335 15.0813 17.3752 15.2063 17.1252 15.1646L14.5168 14.7396C13.9002 15.3396 13.7918 15.4729 13.3335 16.1813L14.3335 18.5396C14.4335 18.7896 14.3752 19.0729 14.1668 19.2563L12.2085 20.9729C12.2752 21.5813 12.4168 22.1729 12.6252 22.7479L15.1668 23.4729C15.4252 23.5479 15.6002 23.7729 15.6168 24.0396L15.7752 26.6313L15.7668 26.6229ZM20.0085 23.7229C18.0585 23.7229 16.4668 22.1313 16.4668 20.1813C16.4668 18.2313 18.0585 16.6396 20.0085 16.6396C21.9585 16.6396 23.5502 18.2313 23.5502 20.1813C23.5502 22.1313 21.9585 23.7229 20.0085 23.7229ZM20.0085 17.8896C18.7418 17.8896 17.7168 18.9146 17.7168 20.1813C17.7168 21.4479 18.7418 22.4729 20.0085 22.4729C21.2752 22.4729 22.3002 21.4479 22.3002 20.1813C22.3002 18.9146 21.2752 17.8896 20.0085 17.8896Z" fill="#E6E8F0"/>
</svg>
