<svg width="40" height="40" viewBox="0 0 40 40" fill="none" xmlns="http://www.w3.org/2000/svg">
<g clip-path="url(#clip0_285_733)">
<path fill-rule="evenodd" clip-rule="evenodd" d="M13.25 14C13.25 13.5858 13.5858 13.25 14 13.25H30C30.2766 13.25 30.5307 13.4022 30.6613 13.6461C30.7918 13.89 30.7775 14.1859 30.624 14.416L26.9014 20L30.624 25.584C30.7775 25.8141 30.7918 26.11 30.6613 26.3539C30.5307 26.5978 30.2766 26.75 30 26.75H14C13.5858 26.75 13.25 26.4142 13.25 26V14ZM14.75 14.75V25.25H28.5986L25.376 20.416C25.208 20.1641 25.208 19.8359 25.376 19.584L28.5986 14.75H14.75Z" fill="#E6E8F0"/>
<path fill-rule="evenodd" clip-rule="evenodd" d="M14 11.25C14.4142 11.25 14.75 11.5858 14.75 12V33C14.75 33.4142 14.4142 33.75 14 33.75C13.5858 33.75 13.25 33.4142 13.25 33V12C13.25 11.5858 13.5858 11.25 14 11.25Z" fill="#E6E8F0"/>
</g>
<defs>
<clipPath id="clip0_285_733">
<rect width="20" height="20" fill="white" transform="translate(10 10)"/>
</clipPath>
</defs>
</svg>
